<svg xmlns="http://www.w3.org/2000/svg" width="1440" height="820" viewBox="0 0 1440 820" role="img" aria-labelledby="title desc">
  <title id="title">Главное окно IB Audit Workstation</title>
  <desc id="desc">Современная светлая схема интерфейса с действиями аудита, сетевыми параметрами и активными интерфейсами.</desc>
  <defs>
    <linearGradient id="page" x1="0" y1="0" x2="1" y2="1">
      <stop offset="0" stop-color="#eef7f6"/>
      <stop offset=".52" stop-color="#f7fafc"/>
      <stop offset="1" stop-color="#edf3fb"/>
    </linearGradient>
    <linearGradient id="hero" x1="0" y1="0" x2="1" y2="0">
      <stop stop-color="#123c3a"/>
      <stop offset="1" stop-color="#1e5160"/>
    </linearGradient>
    <filter id="shadow" x="-20%" y="-20%" width="140%" height="160%">
      <feDropShadow dx="0" dy="12" stdDeviation="18" flood-color="#16313c" flood-opacity=".14"/>
    </filter>
  </defs>
  <rect width="1440" height="820" rx="30" fill="url(#page)"/>
  <rect x="38" y="34" width="1364" height="752" rx="24" fill="#fff" filter="url(#shadow)"/>
  <rect x="38" y="34" width="1364" height="92" rx="24" fill="url(#hero)"/>
  <path d="M38 102h1364v24H38z" fill="url(#hero)"/>
  <circle cx="83" cy="80" r="19" fill="#5eead4"/>
  <path d="M74 80h18M83 71v18" stroke="#123c3a" stroke-width="3" stroke-linecap="round"/>
  <text x="116" y="75" fill="#fff" font-family="Manrope, Segoe UI, sans-serif" font-size="25" font-weight="700">IB Audit Workstation</text>
  <text x="116" y="101" fill="#bfe3df" font-family="Manrope, Segoe UI, sans-serif" font-size="14">Локальный аудит безопасности Windows и сети</text>
  <rect x="1162" y="59" width="196" height="42" rx="21" fill="#ffffff18" stroke="#7dd3c7"/>
  <circle cx="1191" cy="80" r="6" fill="#4ade80"/>
  <text x="1207" y="86" fill="#e9fffb" font-family="Manrope, Segoe UI, sans-serif" font-size="14" font-weight="600">Система готова</text>

  <rect x="66" y="150" width="282" height="602" rx="18" fill="#f6faf9" stroke="#d9e7e5"/>
  <text x="92" y="184" fill="#5e7378" font-family="Manrope, Segoe UI, sans-serif" font-size="12" font-weight="700" letter-spacing="1.6">ДЕЙСТВИЯ</text>
  <rect x="86" y="204" width="242" height="58" rx="13" fill="#0f766e"/>
  <text x="108" y="239" fill="#fff" font-family="Manrope, Segoe UI, sans-serif" font-size="16" font-weight="700">Полный аудит</text>
  <rect x="86" y="274" width="242" height="58" rx="13" fill="#e7f4f2" stroke="#9bd1ca"/>
  <text x="108" y="309" fill="#0f5f59" font-family="Manrope, Segoe UI, sans-serif" font-size="16" font-weight="700">Аудит сети</text>
  <rect x="86" y="344" width="242" height="58" rx="13" fill="#fff" stroke="#d7e1e4"/>
  <text x="108" y="379" fill="#263b42" font-family="Manrope, Segoe UI, sans-serif" font-size="16" font-weight="650">Проверить HTML</text>
  <rect x="86" y="414" width="242" height="58" rx="13" fill="#fff" stroke="#d7e1e4"/>
  <text x="108" y="449" fill="#263b42" font-family="Manrope, Segoe UI, sans-serif" font-size="16" font-weight="650">Обновить базы</text>
  <line x1="92" y1="502" x2="322" y2="502" stroke="#d9e7e5"/>
  <text x="92" y="536" fill="#5e7378" font-family="Manrope, Segoe UI, sans-serif" font-size="12" font-weight="700" letter-spacing="1.4">ПРОФИЛЬ</text>
  <rect x="86" y="554" width="242" height="74" rx="13" fill="#fff" stroke="#d7e1e4"/>
  <text x="108" y="582" fill="#263b42" font-family="Manrope, Segoe UI, sans-serif" font-size="14" font-weight="700">Полная ИБ-проверка</text>
  <text x="108" y="607" fill="#6b7d83" font-family="Manrope, Segoe UI, sans-serif" font-size="12">Система + сеть + отчёт</text>
  <text x="92" y="698" fill="#6b7d83" font-family="Manrope, Segoe UI, sans-serif" font-size="12">Все результаты сохраняются</text>
  <text x="92" y="718" fill="#0f766e" font-family="Manrope, Segoe UI, sans-serif" font-size="12" font-weight="700">локально на компьютере</text>

  <text x="382" y="178" fill="#172126" font-family="Manrope, Segoe UI, sans-serif" font-size="23" font-weight="750">Сетевая проверка</text>
  <text x="382" y="203" fill="#677980" font-family="Manrope, Segoe UI, sans-serif" font-size="13">Безопасный локальный профиль. Внешний диапазон не выбирается автоматически.</text>

  <rect x="382" y="224" width="984" height="154" rx="16" fill="#fbfcfd" stroke="#dce5e8"/>
  <text x="408" y="258" fill="#263b42" font-family="Manrope, Segoe UI, sans-serif" font-size="13" font-weight="700">ЦЕЛИ NMAP</text>
  <rect x="408" y="272" width="440" height="44" rx="10" fill="#fff" stroke="#cfdadd"/>
  <text x="426" y="299" fill="#1d4f5a" font-family="Cascadia Mono, Consolas, monospace" font-size="14">127.0.0.1, адрес выбранного адаптера</text>
  <text x="882" y="258" fill="#263b42" font-family="Manrope, Segoe UI, sans-serif" font-size="13" font-weight="700">ПОРТЫ</text>
  <rect x="882" y="272" width="458" height="44" rx="10" fill="#fff" stroke="#cfdadd"/>
  <text x="900" y="299" fill="#1d4f5a" font-family="Cascadia Mono, Consolas, monospace" font-size="14">22,53,80,135,139,443,445,3389...</text>
  <rect x="408" y="334" width="18" height="18" rx="4" fill="#0f766e"/>
  <path d="M412 343l4 4 7-9" fill="none" stroke="#fff" stroke-width="2"/>
  <text x="438" y="348" fill="#31464d" font-family="Manrope, Segoe UI, sans-serif" font-size="13">Включить Nmap</text>
  <rect x="570" y="334" width="18" height="18" rx="4" fill="#0f766e"/>
  <path d="M574 343l4 4 7-9" fill="none" stroke="#fff" stroke-width="2"/>
  <text x="600" y="348" fill="#31464d" font-family="Manrope, Segoe UI, sans-serif" font-size="13">Анализировать трафик</text>
  <rect x="1186" y="328" width="154" height="34" rx="17" fill="#e6f4f2"/>
  <text x="1212" y="350" fill="#0f766e" font-family="Manrope, Segoe UI, sans-serif" font-size="12" font-weight="700">Профиль T3</text>

  <rect x="382" y="396" width="984" height="268" rx="16" fill="#fff" stroke="#dce5e8"/>
  <text x="408" y="430" fill="#263b42" font-family="Manrope, Segoe UI, sans-serif" font-size="15" font-weight="750">Сетевые интерфейсы</text>
  <rect x="1162" y="409" width="178" height="34" rx="9" fill="#eef6f6" stroke="#b7d9d5"/>
  <text x="1183" y="431" fill="#0f655e" font-family="Manrope, Segoe UI, sans-serif" font-size="12" font-weight="700">Обновить список</text>

  <rect x="408" y="458" width="932" height="54" rx="11" fill="#ecfdf5" stroke="#86d9b3"/>
  <rect x="425" y="476" width="18" height="18" rx="4" fill="#0f766e"/>
  <path d="M429 485l4 4 7-9" fill="none" stroke="#fff" stroke-width="2"/>
  <circle cx="470" cy="485" r="7" fill="#22c55e"/>
  <text x="488" y="482" fill="#14532d" font-family="Manrope, Segoe UI, sans-serif" font-size="14" font-weight="750">Беспроводная сеть</text>
  <text x="488" y="500" fill="#397357" font-family="Manrope, Segoe UI, sans-serif" font-size="11">АКТИВЕН · физический · 866 Мбит/с</text>
  <text x="1030" y="491" fill="#166534" font-family="Cascadia Mono, Consolas, monospace" font-size="12">RX 18.4 МБ/с  ·  TX 2.1 МБ/с</text>

  <rect x="408" y="522" width="932" height="54" rx="11" fill="#fff9e9" stroke="#efd18b"/>
  <rect x="425" y="540" width="18" height="18" rx="4" fill="#fff" stroke="#b7a068"/>
  <circle cx="470" cy="549" r="7" fill="#f59e0b"/>
  <text x="488" y="546" fill="#713f12" font-family="Manrope, Segoe UI, sans-serif" font-size="14" font-weight="750">Ethernet</text>
  <text x="488" y="564" fill="#8a642c" font-family="Manrope, Segoe UI, sans-serif" font-size="11">ЛИНК ЕСТЬ · трафик не обнаружен</text>
  <text x="1117" y="555" fill="#9a670d" font-family="Cascadia Mono, Consolas, monospace" font-size="12">0 бит/с</text>

  <rect x="408" y="586" width="932" height="54" rx="11" fill="#f8fafc" stroke="#dce5e8"/>
  <rect x="425" y="604" width="18" height="18" rx="4" fill="#fff" stroke="#aab8be"/>
  <circle cx="470" cy="613" r="7" fill="#94a3b8"/>
  <text x="488" y="610" fill="#475569" font-family="Manrope, Segoe UI, sans-serif" font-size="14" font-weight="750">VPN-адаптер</text>
  <text x="488" y="628" fill="#78868d" font-family="Manrope, Segoe UI, sans-serif" font-size="11">НЕ ВЫБРАН · виртуальный интерфейс</text>
  <text x="1138" y="619" fill="#64748b" font-family="Cascadia Mono, Consolas, monospace" font-size="12">неактивен</text>

  <rect x="382" y="686" width="984" height="50" rx="14" fill="#153f3d"/>
  <text x="408" y="717" fill="#d8f4ef" font-family="Manrope, Segoe UI, sans-serif" font-size="13">Готово к проверке · выбран 1 активный интерфейс · отчёт откроется только по команде пользователя</text>
  <rect x="1195" y="696" width="145" height="30" rx="15" fill="#5eead4"/>
  <text x="1222" y="716" fill="#123c3a" font-family="Manrope, Segoe UI, sans-serif" font-size="12" font-weight="800">Запустить</text>
</svg>
