<svg xmlns="http://www.w3.org/2000/svg" width="1180" height="560" viewBox="0 0 1180 560" role="img" aria-labelledby="title desc">
  <title id="title">Логика обработки IB Audit Workstation Network Edition</title>
  <desc id="desc">Синтетическая pipeline-схема с опциональным профилем сетевых команд.</desc>
  <defs>
    <style>
      .bg{fill:#f8fafc}.box{fill:#fff;stroke:#dce3e7;stroke-width:2}.net{fill:#ecfeff;stroke:#67e8f9;stroke-width:2}
      .title{font:700 22px Segoe UI,Arial,sans-serif;fill:#172126}.text{font:400 15px Segoe UI,Arial,sans-serif;fill:#172126}
      .small{font:400 13px Segoe UI,Arial,sans-serif;fill:#64748b}.arrow{stroke:#0f766e;stroke-width:3;marker-end:url(#arrow)}
      .arrow2{stroke:#2563eb;stroke-width:3;marker-end:url(#arrow2)}.status{font:700 13px Segoe UI,Arial,sans-serif}
    </style>
    <marker id="arrow" viewBox="0 0 10 10" refX="8" refY="5" markerWidth="7" markerHeight="7" orient="auto-start-reverse">
      <path d="M 0 0 L 10 5 L 0 10 z" fill="#0f766e"/>
    </marker>
    <marker id="arrow2" viewBox="0 0 10 10" refX="8" refY="5" markerWidth="7" markerHeight="7" orient="auto-start-reverse">
      <path d="M 0 0 L 10 5 L 0 10 z" fill="#2563eb"/>
    </marker>
  </defs>
  <rect class="bg" width="1180" height="560"/>
  <text class="title" x="36" y="48">Логика работы ПО</text>
  <text class="small" x="36" y="76">Схема условная и не содержит данных реального компьютера или сети.</text>

  <g transform="translate(40 120)">
    <rect class="box" width="178" height="128" rx="14"/>
    <text class="text" x="20" y="36" font-weight="700">1. Источники</text>
    <text class="small" x="20" y="66">Windows collectors</text>
    <text class="small" x="20" y="90">HTML import</text>
    <text class="small" x="20" y="114">CISA/NVD/ФСТЭК</text>
  </g>
  <line class="arrow" x1="232" y1="184" x2="282" y2="184"/>

  <g transform="translate(298 120)">
    <rect class="box" width="188" height="128" rx="14"/>
    <text class="text" x="20" y="36" font-weight="700">2. Нормализация</text>
    <text class="small" x="20" y="66">InventoryObject</text>
    <text class="small" x="20" y="90">Diagnostics</text>
    <text class="small" x="20" y="114">Evidence fields</text>
  </g>
  <line class="arrow" x1="500" y1="184" x2="552" y2="184"/>

  <g transform="translate(568 94)">
    <rect class="net" width="226" height="180" rx="14"/>
    <text class="text" x="20" y="36" font-weight="700">3. Сеть опционально</text>
    <text class="small" x="20" y="66">Команды сети</text>
    <text class="small" x="20" y="90">Nmap: -n -Pn -T -open -sV -O</text>
    <text class="small" x="20" y="114">tshark: -i -n -q -a -T fields</text>
    <text class="small" x="20" y="138">BPF-фильтр и extra args</text>
    <text class="small" x="20" y="162">Open services + Traffic flows</text>
  </g>
  <line class="arrow2" x1="808" y1="184" x2="858" y2="184"/>

  <g transform="translate(874 120)">
    <rect class="box" width="220" height="128" rx="14"/>
    <text class="text" x="20" y="36" font-weight="700">4. Оценка</text>
    <text class="small" x="20" y="66">Rulepacks JSON</text>
    <text class="small" x="20" y="90">CVE/BDU correlation</text>
    <text class="small" x="20" y="114">Risk scoring</text>
  </g>
  <line class="arrow" x1="984" y1="248" x2="984" y2="300"/>

  <g transform="translate(866 316)">
    <rect class="box" width="236" height="128" rx="14"/>
    <text class="text" x="20" y="36" font-weight="700">5. Результат</text>
    <text class="small" x="20" y="66">SQLite history</text>
    <text class="small" x="20" y="90">HTML report</text>
    <text class="small" x="20" y="114">Network Intelligence</text>
  </g>

  <g transform="translate(74 326)">
    <rect class="box" width="686" height="138" rx="14"/>
    <text class="text" x="26" y="38" font-weight="700">Статусы объектов и точность вывода</text>
    <rect x="26" y="60" width="110" height="32" rx="16" fill="#fee2e2"/><text class="status" x="62" y="81" fill="#991b1b">risk</text>
    <rect x="154" y="60" width="120" height="32" rx="16" fill="#dcfce7"/><text class="status" x="194" y="81" fill="#166534">passed</text>
    <rect x="292" y="60" width="178" height="32" rx="16" fill="#ffedd5"/><text class="status" x="322" y="81" fill="#9a3412">insufficient_data</text>
    <rect x="488" y="60" width="160" height="32" rx="16" fill="#e2e8f0"/><text class="status" x="522" y="81" fill="#475569">not_applicable</text>
    <text class="small" x="26" y="116">Уязвимость подтверждается только при достаточном совпадении продукта, версии, CPE или диапазона версий.</text>
  </g>
</svg>
