<svg xmlns="http://www.w3.org/2000/svg" width="1180" height="620" viewBox="0 0 1180 620" role="img" aria-labelledby="title desc">
  <title id="title">Окно настройки сетевых команд</title>
  <desc id="desc">Синтетическая схема настройки Nmap и tshark без реальных сетевых данных.</desc>
  <defs>
    <marker id="arrow-blue" markerWidth="10" markerHeight="10" refX="8" refY="3" orient="auto" markerUnits="strokeWidth">
      <path d="M0,0 L0,6 L9,3 z" fill="#2563eb"/>
    </marker>
    <style>
      .bg{fill:#f8fafc}.panel{fill:#fff;stroke:#d8dee9;stroke-width:2}.panel-blue{fill:#eff6ff;stroke:#93c5fd;stroke-width:2}
      .dark{fill:#111827}.title{font:700 28px Segoe UI,Arial,sans-serif;fill:#111827}
      .label{font:600 16px Segoe UI,Arial,sans-serif;fill:#111827}.small{font:13px Segoe UI,Arial,sans-serif;fill:#475569}
      .muted{font:12px Segoe UI,Arial,sans-serif;fill:#64748b}.white{font:13px Segoe UI,Arial,sans-serif;fill:#e5e7eb}
      .chip{fill:#eef2ff;stroke:#c7d2fe}.ok{fill:#dcfce7;stroke:#86efac}.warn{fill:#ffedd5;stroke:#fdba74}
      .line{stroke:#2563eb;stroke-width:3;fill:none;marker-end:url(#arrow-blue)}
      .check{fill:#0f766e}.input{fill:#f8fafc;stroke:#cbd5e1}.tooltip{fill:#172126}
    </style>
  </defs>

  <rect class="bg" width="1180" height="620" rx="18"/>
  <text class="title" x="40" y="56">Network Edition: включаемый сетевой модуль</text>
  <text class="small" x="40" y="84">Все элементы на схеме синтетические: нет реальных IP, имён компьютеров, логов и результатов аудита.</text>

  <rect class="panel" x="40" y="126" width="250" height="196" rx="12"/>
  <text class="label" x="66" y="164">Главное окно</text>
  <rect class="ok" x="66" y="192" width="158" height="34" rx="17"/>
  <circle class="check" cx="84" cy="209" r="7"/>
  <text class="small" x="100" y="214">Включить Nmap</text>
  <rect class="warn" x="66" y="238" width="174" height="34" rx="17"/>
  <circle class="check" cx="84" cy="255" r="7"/>
  <text class="small" x="100" y="260">Захват трафика</text>
  <rect class="chip" x="66" y="284" width="150" height="34" rx="17"/>
  <text class="small" x="94" y="306">Команды сети</text>

  <path class="line" d="M290 226 H348"/>

  <rect class="panel" x="348" y="102" width="352" height="396" rx="12"/>
  <text class="label" x="376" y="140">Окно «Команды сети»</text>
  <rect class="input" x="376" y="166" width="296" height="30" rx="6"/>
  <text class="muted" x="390" y="186">Цели: 192.168.0.0/24</text>
  <rect class="input" x="376" y="206" width="296" height="30" rx="6"/>
  <text class="muted" x="390" y="226">Порты: 1-65535</text>
  <text class="small" x="376" y="266">☑ -n  Не выполнять DNS-разрешение</text>
  <text class="small" x="376" y="294">☑ -Pn Считать цели доступными</text>
  <text class="small" x="376" y="322">☑ -sV Определять сервисы и версии</text>
  <text class="small" x="376" y="350">☐ -O  Определять ОС хоста</text>
  <rect class="input" x="376" y="372" width="296" height="30" rx="6"/>
  <text class="muted" x="390" y="392">Фильтр tshark: tcp port 443</text>
  <rect class="tooltip" x="376" y="426" width="296" height="48" rx="8"/>
  <text x="392" y="448" font-family="Segoe UI,Arial,sans-serif" font-size="12" fill="#fff">Подсказка при наведении:</text>
  <text x="392" y="466" font-family="Segoe UI,Arial,sans-serif" font-size="12" fill="#d1d5db">что делает выбранный ключ</text>

  <path class="line" d="M700 190 H742"/>
  <path class="line" d="M700 362 H742"/>

  <rect class="panel-blue" x="742" y="112" width="356" height="124" rx="12"/>
  <text class="label" x="770" y="148">Nmap command</text>
  <text class="small" x="770" y="178">nmap -n -Pn -T2 -open -oX -</text>
  <text class="small" x="770" y="202">-p &lt;ports&gt; -sV [-O] &lt;extra&gt; &lt;targets&gt;</text>
  <text class="muted" x="770" y="224">XML → открытые сервисы, CPE и ОС</text>

  <rect class="panel-blue" x="742" y="284" width="356" height="136" rx="12"/>
  <text class="label" x="770" y="320">tshark/Wireshark command</text>
  <text class="small" x="770" y="350">tshark -i &lt;interface&gt; -n -q</text>
  <text class="small" x="770" y="374">-a duration:&lt;sec&gt; -T fields ... [-f filter]</text>
  <text class="muted" x="770" y="402">CSV → потоки, пакеты, байты, порты</text>

  <path class="line" d="M1098 174 H1136 V470 H1098"/>
  <path class="line" d="M1098 352 H1136 V470 H1098"/>

  <rect class="dark" x="742" y="470" width="356" height="104" rx="14"/>
  <text x="770" y="504" font-family="Segoe UI,Arial,sans-serif" font-size="17" font-weight="700" fill="#fff">HTML-отчёт</text>
  <text class="white" x="770" y="532">Open services · Traffic flows · CVE/BDU links</text>
  <text x="770" y="556" font-family="Segoe UI,Arial,sans-serif" font-size="12" fill="#9ca3af">Раздел Network Intelligence без реальных данных</text>
</svg>
